<svg xmlns="http://www.w3.org/2000/svg" viewBox="0 0 512 512">
  <rect width="512" height="512" rx="108" fill="#115E59"/>
  <g transform="translate(256,256)">
    <!-- River flow shape -->
    <path d="M0-180 C40-140 60-100 30-60 C0-20 -50,10 -30,60 C-10,110 50,130 40,170 C35,190 10,200 0,200 C-10,200 -35,190 -40,170 C-50,130 10,110 30,60 C50,10 0,-20 -30,-60 C-60,-100 -40,-140 0,-180Z" fill="#5EEAD4" opacity="0.9"/>
    <!-- Center highlight -->
    <path d="M0-160 C15-120 20-80 10-50 C0-20 -15,10 -10,50 C-5,90 15,110 10,150 C8,165 3,170 0,170 C-3,170 -8,165 -10,150 C-15,110 5,90 10,50 C15,10 0,-20 -10,-50 C-20,-80 -15,-120 0,-160Z" fill="white" opacity="0.3"/>
    <!-- Glow dot -->
    <circle cx="0" cy="170" r="12" fill="white" opacity="0.6"/>
  </g>
</svg>
